<svg width="17" height="20" viewBox="0 0 17 20" fill="none" xmlns="http://www.w3.org/2000/svg">
<path fill-rule="evenodd" clip-rule="evenodd" d="M8.56367 1.5C6.70957 1.5 5.20652 3.00304 5.20652 4.85714V5.5H4.20652V4.85714C4.20652 2.45076 6.15728 0.5 8.56367 0.5C10.9701 0.5 12.9208 2.45076 12.9208 4.85714V5.5H11.9208V4.85714C11.9208 3.00304 10.4178 1.5 8.56367 1.5ZM3.28586 7.92857C2.8855 7.92857 2.54917 8.22961 2.50496 8.62752L1.50496 17.6275C1.45324 18.0929 1.81757 18.5 2.28586 18.5H14.8415C15.3098 18.5 15.6741 18.0929 15.6224 17.6275L14.6224 8.62752C14.5782 8.22961 14.2418 7.92857 13.8415 7.92857H3.28586ZM1.51107 8.51709C1.61156 7.61274 2.37595 6.92857 3.28586 6.92857H13.8415C14.7514 6.92857 15.5158 7.61274 15.6163 8.51708L16.6163 17.5171C16.7338 18.5749 15.9058 19.5 14.8415 19.5H2.28586C1.22156 19.5 0.39354 18.5749 0.511073 17.5171L1.51107 8.51709Z" fill="black"/>
</svg>
