<svg width="17" height="17" viewBox="0 0 17 17" fill="none" xmlns="http://www.w3.org/2000/svg">
<path fill-rule="evenodd" clip-rule="evenodd" d="M0.5 5.28571C0.5 2.64264 2.64264 0.5 5.28571 0.5H11.7143C14.3574 0.5 16.5 2.64264 16.5 5.28571V11.7143C16.5 14.3574 14.3574 16.5 11.7143 16.5H5.28571C2.64264 16.5 0.5 14.3574 0.5 11.7143V5.28571ZM5.28571 1.5C3.19492 1.5 1.5 3.19492 1.5 5.28571V11.7143C1.5 13.8051 3.19492 15.5 5.28571 15.5H11.7143C13.8051 15.5 15.5 13.8051 15.5 11.7143V5.28571C15.5 3.19492 13.8051 1.5 11.7143 1.5H5.28571ZM13.3214 4.71429H12.25V3.71429H13.3214V4.71429ZM4.78571 8.5C4.78571 6.44866 6.44866 4.78571 8.5 4.78571C10.5513 4.78571 12.2143 6.44866 12.2143 8.5C12.2143 10.5513 10.5513 12.2143 8.5 12.2143C6.44866 12.2143 4.78571 10.5513 4.78571 8.5ZM8.5 5.78571C7.00094 5.78571 5.78571 7.00094 5.78571 8.5C5.78571 9.99906 7.00094 11.2143 8.5 11.2143C9.99906 11.2143 11.2143 9.99906 11.2143 8.5C11.2143 7.00094 9.99906 5.78571 8.5 5.78571Z" fill="black"/>
</svg>
