<svg width="18" height="16" viewBox="0 0 18 16" fill="none" xmlns="http://www.w3.org/2000/svg">
<path fill-rule="evenodd" clip-rule="evenodd" d="M0.5 2.16667C0.5 1.24619 1.24619 0.5 2.16667 0.5H16.1667C17.0871 0.5 17.8333 1.24619 17.8333 2.16667V13.8333C17.8333 14.7538 17.0871 15.5 16.1667 15.5H2.16667C1.24619 15.5 0.5 14.7538 0.5 13.8333V2.16667ZM2.16667 1.5C1.79848 1.5 1.5 1.79848 1.5 2.16667V4.20984L9.16667 8.59079L16.8333 4.20984V2.16667C16.8333 1.79848 16.5349 1.5 16.1667 1.5H2.16667ZM16.8333 5.36159L9.16667 9.74254L1.5 5.36159V13.8333C1.5 14.2015 1.79848 14.5 2.16667 14.5H16.1667C16.5349 14.5 16.8333 14.2015 16.8333 13.8333V5.36159Z" fill="black"/>
</svg>
