<svg width="19" height="19" viewBox="0 0 19 19" fill="none" xmlns="http://www.w3.org/2000/svg">
<path fill-rule="evenodd" clip-rule="evenodd" d="M0.5 3.42857C0.5 1.81117 1.81117 0.5 3.42857 0.5H6.12334C6.90997 0.5 7.59566 1.03537 7.78644 1.79851L8.49806 4.64498C8.71532 5.51401 8.22687 6.4038 7.37707 6.68707L6.03087 7.1358C5.56747 7.29027 5.2916 7.76564 5.3874 8.24462C5.92916 10.9534 8.04656 13.0708 10.7554 13.6126C11.2344 13.7084 11.7097 13.4325 11.8642 12.9691L12.2258 11.8844C12.5557 10.8947 13.6856 10.4267 14.6187 10.8932L17.5524 12.36C18.1331 12.6504 18.5 13.244 18.5 13.8933V15.5714C18.5 17.1888 17.1888 18.5 15.5714 18.5H13.1429C6.1604 18.5 0.5 12.8396 0.5 5.85714V3.42857ZM3.42857 1.5C2.36345 1.5 1.5 2.36345 1.5 3.42857V5.85714C1.5 12.2873 6.71268 17.5 13.1429 17.5H15.5714C16.6365 17.5 17.5 16.6365 17.5 15.5714V13.8933C17.5 13.6228 17.3471 13.3754 17.1052 13.2545L14.1715 11.7876C13.7827 11.5932 13.3119 11.7883 13.1745 12.2006L12.8129 13.2854C12.4989 14.2272 11.5328 14.7879 10.5593 14.5932C7.45458 13.9722 5.02775 11.5454 4.40682 8.44074C4.21211 7.46722 4.77279 6.50107 5.71464 6.18712L7.06084 5.73839C7.41493 5.62036 7.61844 5.24961 7.52792 4.88752L6.8163 2.04105C6.73681 1.72307 6.45111 1.5 6.12334 1.5H3.42857Z" fill="white"/>
</svg>
