<svg width="15" height="20" viewBox="0 0 15 20" fill="none" xmlns="http://www.w3.org/2000/svg">
<path fill-rule="evenodd" clip-rule="evenodd" d="M7.43276 1.5C5.57678 1.5 4.0731 3.00316 4.0731 4.85714C4.0731 6.71112 5.57678 8.21428 7.43276 8.21428C9.28874 8.21428 10.7924 6.71112 10.7924 4.85714C10.7924 3.00316 9.28874 1.5 7.43276 1.5ZM3.0731 4.85714C3.0731 2.45026 5.02511 0.5 7.43276 0.5C9.84041 0.5 11.7924 2.45026 11.7924 4.85714C11.7924 7.26402 9.84041 9.21428 7.43276 9.21428C5.02511 9.21428 3.0731 7.26402 3.0731 4.85714ZM4.85966 13.0714C3.00406 13.0714 1.5 14.5751 1.5 16.4304V18.5H13.3655V16.4304C13.3655 14.5751 11.8615 13.0714 10.0059 13.0714H4.85966ZM0.5 16.4304C0.5 14.0225 2.452 12.0714 4.85966 12.0714H10.0059C12.4135 12.0714 14.3655 14.0225 14.3655 16.4304V19.5H0.5V16.4304Z" fill="black"/>
</svg>
