<svg width="22" height="19" viewBox="0 0 22 19" fill="none" xmlns="http://www.w3.org/2000/svg">
<path fill-rule="evenodd" clip-rule="evenodd" d="M6.00867 1.5C3.5186 1.5 1.5 3.5186 1.5 6.00867C1.5 7.20445 1.97502 8.35124 2.82056 9.19678L10.9167 17.2929L19.0128 9.19679C19.8583 8.35125 20.3333 7.20445 20.3333 6.00867C20.3333 3.5186 18.3147 1.5 15.8247 1.5C14.6289 1.5 13.4821 1.97502 12.6365 2.82056L11.2702 4.18689C11.075 4.38215 10.7584 4.38215 10.5631 4.18689L9.19679 2.82056C8.35125 1.97502 7.20445 1.5 6.00867 1.5ZM0.5 6.00867C0.5 2.96632 2.96632 0.5 6.00867 0.5C7.46966 0.5 8.87082 1.08038 9.90389 2.11345L10.9167 3.12623L11.9294 2.11345C12.9625 1.08038 14.3637 0.5 15.8247 0.5C18.867 0.5 21.3333 2.96632 21.3333 6.00867C21.3333 7.46966 20.753 8.87082 19.7199 9.90389L11.2702 18.3536C11.075 18.5488 10.7584 18.5488 10.5631 18.3536L2.11345 9.90389C1.08037 8.87081 0.5 7.46966 0.5 6.00867Z" fill="black"/>
</svg>
